<svg width="36" height="36" viewBox="0 0 36 36" fill="none" xmlns="http://www.w3.org/2000/svg">
<path d="M18.0905 0.639648C8.52551 0.639648 0.772217 8.39294 0.772217 17.9579C0.772217 27.5228 8.52551 35.2761 18.0905 35.2761C27.6554 35.2761 35.4087 27.5228 35.4087 17.9579C35.4087 8.39294 27.6575 0.639648 18.0905 0.639648ZM26.0319 25.6181C25.7217 26.1269 25.0558 26.2882 24.5471 25.9759C20.4812 23.4921 15.3626 22.9296 9.33414 24.3069C8.753 24.4393 8.17393 24.0753 8.04157 23.4942C7.90922 22.913 8.27113 22.334 8.85434 22.2016C15.4516 20.694 21.1099 21.3434 25.6762 24.1332C26.185 24.4455 26.3463 25.1094 26.034 25.6181H26.0319ZM28.1517 20.9029C27.7609 21.5378 26.9295 21.7384 26.2946 21.3475C21.6393 18.4852 14.5437 17.658 9.03633 19.329C8.32284 19.5441 7.56798 19.1429 7.35083 18.4294C7.13575 17.7159 7.53903 16.9631 8.25045 16.746C14.5395 14.8371 22.359 15.7616 27.705 19.0478C28.3399 19.4386 28.5405 20.27 28.1497 20.9049L28.1517 20.9029ZM28.3337 15.9911C22.7519 12.676 13.5427 12.372 8.21323 13.9892C7.35704 14.2477 6.45328 13.7659 6.1927 12.9097C5.93418 12.0535 6.41605 11.1497 7.27224 10.8891C13.3897 9.03198 23.5606 9.38976 29.9861 13.2054C30.7575 13.6624 31.0098 14.6572 30.5528 15.4245C30.0978 16.1938 29.101 16.4482 28.3337 15.9911Z" fill="#F0E74D"/>
</svg>
