<svg width="28" height="24" viewBox="0 0 28 24" fill="none" xmlns="http://www.w3.org/2000/svg">
<path d="M27.4316 3.46606C26.5716 3.85606 25.6116 4.09606 24.6916 4.24606C25.1316 4.17606 25.7816 3.37606 26.0416 3.04606C26.4416 2.55606 26.7616 1.98606 26.9516 1.38606C26.9716 1.33606 26.9916 1.27606 26.9516 1.24606C26.8916 1.22606 26.8516 1.23606 26.8016 1.25606C25.7616 1.81606 24.6916 2.21606 23.5416 2.50606C23.4516 2.52606 23.3816 2.50606 23.3216 2.44606C23.2216 2.33606 23.1416 2.23606 23.0316 2.15606C22.5516 1.74606 22.0416 1.42606 21.4516 1.18606C20.6916 0.876061 19.8516 0.746061 19.0316 0.796061C18.2316 0.846061 17.4416 1.07606 16.7416 1.44606C16.0316 1.81606 15.3916 2.33606 14.8916 2.95606C14.3716 3.60606 13.9816 4.36606 13.7916 5.16606C13.6016 5.94606 13.6116 6.71606 13.7316 7.50606C13.7516 7.63606 13.7316 7.65606 13.6216 7.63606C9.15159 6.96606 5.44159 5.37606 2.44159 1.94606C2.31159 1.79606 2.2416 1.79606 2.1316 1.95606C0.811595 3.92606 1.45159 7.09606 3.10159 8.65606C3.32159 8.86606 3.55159 9.07606 3.79159 9.26606C3.70159 9.28606 2.6116 9.16606 1.6316 8.65606C1.5016 8.57606 1.4316 8.61606 1.4216 8.76606C1.4116 8.97606 1.42159 9.17606 1.46159 9.40606C1.71159 11.4061 3.1016 13.2561 4.9916 13.9761C5.2216 14.0761 5.46159 14.1561 5.71159 14.1961C5.28159 14.2861 4.83159 14.3561 3.59159 14.2661C3.44159 14.2361 3.38159 14.3161 3.44159 14.4661C4.37159 17.0061 6.38159 17.7561 7.89159 18.1861C8.09159 18.2261 8.2916 18.2261 8.4916 18.2661C8.4816 18.2861 8.47159 18.2861 8.46159 18.3061C7.96159 19.0661 6.2316 19.6361 5.4216 19.9161C3.9516 20.4261 2.3616 20.6561 0.811595 20.5061C0.561595 20.4661 0.511593 20.4761 0.441593 20.5061C0.371593 20.5461 0.441592 20.6061 0.511592 20.6761C0.831592 20.8861 1.14159 21.0661 1.47159 21.2461C2.46159 21.7661 3.48159 22.1861 4.55159 22.4761C10.0916 24.0061 16.3316 22.8861 20.4916 18.7461C23.7616 15.4961 24.9016 11.0261 24.9016 6.53606C24.9016 6.35606 25.1116 6.26606 25.2316 6.16606C26.0816 5.52606 26.7716 4.76606 27.4016 3.90606C27.5416 3.71606 27.5416 3.54606 27.5416 3.47606V3.45606C27.5416 3.38606 27.5416 3.40606 27.4316 3.45606" fill="#F0E74D"/>
</svg>
