<svg width="35" height="26" viewBox="0 0 35 26" fill="none" xmlns="http://www.w3.org/2000/svg">
<path d="M23.4115 0.871826C23.553 1.07487 23.7684 0.967197 23.9437 0.97335C25.9711 1.06564 28.0016 1.1364 30.0198 1.38867C32.7455 1.72709 34.1268 3.03151 34.5329 5.74804C35.0652 9.29214 35.0836 12.8547 34.896 16.4234C34.8221 17.8355 34.7052 19.2384 34.4437 20.632C34.0192 22.8994 32.604 24.2376 30.3089 24.5084C26.531 24.9575 22.7316 24.9914 18.9383 25.0345C15.0527 25.0775 11.1671 24.9729 7.28769 24.7176C6.40782 24.6591 5.52794 24.5668 4.66038 24.4069C2.77142 24.0592 1.46085 22.8009 1.05167 20.9212C0.725568 19.4322 0.639427 17.9155 0.519444 16.4019C0.507139 16.2419 0.608662 16.045 0.408691 15.925V9.99049C0.608662 9.87051 0.507139 9.67362 0.519444 9.51364C0.627121 8.17845 0.719415 6.84019 0.943998 5.5173C1.3624 3.04074 2.76835 1.70863 5.25721 1.38867C7.23846 1.1364 9.22894 1.07487 11.2194 0.976426C11.3948 0.967197 11.6101 1.07795 11.7486 0.871826H23.4115V0.871826ZM14.3082 7.80927V18.1062C17.3108 16.3803 20.255 14.6883 23.2669 12.9562C20.2396 11.2149 17.3016 9.52902 14.3082 7.80927Z" fill="#F0E74D"/>
</svg>
